<?xml version="1.0" standalone="no"?>
<!DOCTYPE svg PUBLIC "-//W3C//DTD SVG 20010904//EN"
 "http://www.w3.org/TR/2001/REC-SVG-20010904/DTD/svg10.dtd">
<svg version="1.0" xmlns="http://www.w3.org/2000/svg"
 width="736.000000pt" height="736.000000pt" viewBox="0 0 736.000000 736.000000"
 preserveAspectRatio="xMidYMid meet">
<metadata>
Created by potrace 1.14, written by Peter Selinger 2001-2017
</metadata>
<g transform="translate(0.000000,736.000000) scale(0.100000,-0.100000)"
fill="#000000" stroke="none">
<path d="M6125 7241 c-2 -2 -22 -4 -44 -5 -22 -1 -43 -4 -45 -7 -3 -3 -6 -57
-7 -120 -3 -158 -4 -161 -93 -175 -21 -3 -48 -8 -60 -10 -34 -8 -70 -16 -81
-18 -5 -1 -20 -7 -31 -14 -12 -6 -24 -9 -27 -5 -4 3 -13 0 -22 -7 -8 -7 -15
-10 -15 -7 0 3 -26 -2 -57 -10 -32 -8 -67 -17 -78 -18 -33 -6 -145 -34 -220
-56 -71 -22 -110 -31 -132 -32 -7 0 -13 -4 -13 -9 0 -5 -4 -7 -9 -4 -5 3 -27
-1 -50 -9 -23 -8 -43 -14 -46 -15 -3 0 -6 0 -7 -1 -2 0 -10 -2 -18 -4 -8 -2
-35 -8 -60 -15 -25 -6 -54 -12 -65 -14 -11 -2 -20 -4 -20 -5 0 -2 -7 -4 -15
-6 -8 -2 -42 -11 -75 -20 -33 -9 -64 -18 -70 -19 -5 -2 -28 -7 -50 -11 -55
-12 -55 -12 -57 -15 -2 -1 -10 -3 -18 -5 -8 -2 -35 -8 -60 -14 -41 -11 -70
-17 -110 -26 -8 -2 -15 -4 -15 -5 0 -2 -15 -5 -60 -13 -16 -3 -45 -10 -64 -16
-19 -6 -38 -8 -42 -5 -5 3 -9 1 -9 -4 0 -5 -6 -9 -12 -9 -7 0 -26 -4 -43 -7
-16 -4 -43 -10 -60 -13 -16 -3 -38 -9 -47 -14 -9 -5 -21 -9 -25 -8 -4 1 -10 0
-13 -1 -6 -2 -16 -5 -80 -20 -25 -7 -53 -13 -64 -16 -10 -2 -44 -11 -75 -20
-31 -10 -63 -18 -71 -19 -8 -1 -76 -19 -150 -39 -74 -21 -139 -38 -145 -39 -5
-2 -15 -6 -21 -9 -10 -7 -24 -10 -91 -23 -16 -3 -36 -8 -45 -11 -21 -6 -64
-15 -93 -19 -11 -2 -20 -4 -20 -5 0 -8 -166 -19 -375 -24 -143 -3 -209 -14
-211 -33 0 -5 -2 -46 -3 -91 -1 -66 2 -85 14 -92 14 -7 135 -6 540 5 353 11
429 11 440 5 7 -4 5 -19 -5 -44 -23 -53 -22 -122 2 -154 10 -15 43 -38 71 -52
32 -15 52 -30 51 -40 -3 -30 1 -51 9 -46 4 2 9 19 10 37 3 42 5 44 57 69 25
12 50 30 55 41 16 28 21 119 9 163 -6 21 -9 40 -7 42 6 5 147 15 293 19 72 3
198 7 280 10 83 3 217 7 298 9 82 2 151 7 154 10 3 3 12 1 20 -5 7 -6 13 -7
13 -2 0 5 10 9 23 10 65 2 250 13 302 17 174 16 395 20 407 8 3 -4 -5 -34 -20
-67 -28 -65 -27 -40 -18 -522 2 -76 16 -90 91 -86 141 8 316 9 321 1 3 -5 7
-32 8 -61 1 -29 6 -58 9 -64 4 -7 3 -14 -3 -18 -6 -4 -8 -11 -4 -16 3 -5 7
-62 10 -127 8 -206 12 -263 17 -268 3 -3 1 -19 -3 -35 -5 -16 -6 -29 -2 -29 4
0 9 -91 11 -202 5 -318 7 -394 13 -404 3 -5 3 -155 1 -334 -4 -393 -6 -569 -4
-605 0 -5 2 -38 4 -72 1 -37 -2 -63 -7 -63 -6 0 -5 -5 1 -11 8 -8 8 -20 3 -35
-5 -13 -6 -25 -1 -28 8 -5 6 -88 -3 -112 -3 -7 -1 -16 5 -19 5 -4 6 -11 3 -17
-8 -12 -11 -98 -4 -98 3 0 4 -17 3 -37 -1 -21 -2 -59 -2 -84 -1 -38 -5 -48
-23 -55 -13 -6 -30 -10 -38 -9 -13 1 -24 -9 -58 -50 -4 -5 -34 -56 -66 -112
-31 -56 -64 -107 -72 -114 -8 -6 -14 -17 -14 -23 0 -6 -13 -23 -30 -38 -27
-23 -38 -26 -122 -28 -224 -5 -343 -9 -343 -10 0 -1 -20 -2 -44 -4 -70 -4 -68
6 -62 -303 1 -89 11 -100 82 -97 265 12 463 17 679 16 970 -5 1247 -5 1259 2
9 6 11 27 7 80 -4 39 -9 103 -11 141 -9 111 -15 149 -30 164 -11 11 -54 14
-212 13 -109 0 -208 1 -219 3 -14 3 -31 24 -49 60 -16 30 -32 55 -35 55 -4 0
-10 8 -13 18 -7 20 -75 140 -97 169 -17 22 -61 47 -102 57 -31 7 -32 11 -30
126 6 323 6 748 0 762 -5 9 -5 19 -1 21 18 11 -2 1277 -22 1492 -4 33 -7 140
-8 238 -2 197 -2 197 62 197 53 0 68 20 61 82 -8 77 -5 495 5 548 4 25 8 51 8
58 0 10 22 15 82 15 50 0 53 -2 53 -40 0 -21 1 -42 2 -48 1 -5 1 -14 0 -20 -7
-30 -4 -233 3 -251 9 -21 13 -21 191 -17 99 2 187 4 194 3 6 0 18 0 25 0 19 0
101 8 107 10 3 1 8 2 12 1 4 0 10 9 13 20 11 33 8 401 -3 429 -5 14 -6 35 -1
48 5 12 5 22 0 22 -4 0 -6 18 -5 40 2 35 -2 43 -30 62 -17 12 -34 27 -38 33
-4 5 -8 7 -8 3 0 -5 -9 0 -19 10 -37 32 -51 43 -51 36 0 -4 -9 3 -19 15 -11
12 -21 21 -23 20 -3 -3 -183 112 -205 131 -7 5 -17 10 -23 10 -5 0 -10 5 -10
10 0 6 -7 10 -15 10 -7 0 -18 8 -24 18 -5 9 -12 16 -15 14 -6 -2 -54 26 -66
38 -3 3 -17 11 -32 19 -16 8 -28 18 -28 23 0 4 -5 8 -10 8 -8 0 -206 127 -229
147 -3 2 -6 52 -7 112 -1 60 -5 114 -8 120 -4 6 -2 11 5 11 8 0 8 4 -1 15 -11
13 -35 15 -132 13 -66 -2 -121 -5 -123 -7z m226 -39 c4 -21 5 -109 1 -119 -8
-23 -52 -10 -90 25 -8 7 -32 20 -53 29 -22 8 -39 19 -39 25 0 5 -3 7 -8 4 -10
-6 -45 21 -39 31 6 10 226 15 228 5z m-225 -44 c27 -12 52 -21 57 -20 4 1 7
-2 7 -6 0 -5 18 -17 40 -27 22 -10 39 -23 37 -29 -2 -6 -35 -12 -77 -13 -40
-1 -83 -4 -96 -7 -20 -5 -22 -2 -25 37 -4 41 -1 87 5 87 2 0 25 -10 52 -22z
m137 -137 c9 0 17 -6 17 -12 0 -5 -4 -8 -9 -5 -5 3 -11 -1 -15 -9 -3 -8 -12
-15 -21 -15 -15 0 -20 -12 -8 -23 6 -7 76 31 81 45 2 4 15 8 28 8 14 0 22 -4
19 -10 -3 -5 -2 -10 2 -10 13 0 16 -235 4 -273 l-11 -33 -73 36 c-83 41 -181
103 -193 121 -5 8 -1 17 11 23 10 6 27 19 37 29 10 9 20 17 23 17 3 0 19 7 35
15 32 17 40 35 15 35 -8 0 -15 -4 -15 -10 0 -5 -5 -10 -10 -10 -6 0 -35 -15
-64 -34 -53 -34 -54 -34 -63 -13 -5 12 -8 28 -7 35 1 6 2 23 3 37 2 46 31 60
118 59 43 -1 86 -2 96 -3z m-252 -138 c0 -16 2 -37 5 -48 2 -11 5 -53 7 -92 4
-62 2 -73 -13 -78 -25 -8 -85 -16 -155 -20 -33 -2 -60 -5 -60 -5 0 -3 -102
-20 -150 -25 -16 -1 -30 -4 -30 -5 0 -1 -16 -4 -35 -5 -33 -3 -53 -6 -125 -19
-16 -3 -52 -8 -80 -11 -27 -3 -61 -8 -75 -10 -73 -13 -98 -17 -125 -20 -16 -2
-39 -6 -51 -8 -12 -3 -45 -8 -74 -12 -29 -4 -62 -9 -74 -11 -11 -2 -36 -6 -56
-9 -20 -3 -47 -8 -60 -10 -14 -3 -45 -7 -70 -10 -25 -3 -63 -8 -85 -11 -43 -5
-80 -12 -80 -14 0 -1 -35 -7 -95 -14 -46 -6 -119 -16 -150 -22 -14 -2 -47 -7
-75 -10 -71 -9 -69 -9 -82 -17 -7 -5 -13 -4 -13 2 0 7 -8 7 -23 2 -13 -5 -44
-10 -68 -12 -24 -1 -48 -5 -54 -8 -5 -2 -19 -6 -31 -7 -12 -1 -39 -5 -60 -9
-22 -4 -52 -8 -69 -10 -83 -10 -175 -24 -194 -31 -7 -2 -21 1 -29 8 -11 9 -14
9 -9 1 4 -6 3 -14 -2 -17 -5 -4 -12 -2 -15 3 -8 13 17 30 39 27 11 -2 38 2 60
9 22 6 45 12 50 14 6 1 28 7 50 13 22 6 48 11 58 10 9 0 15 3 12 7 -2 5 3 8
13 7 17 0 152 30 182 41 8 3 23 8 33 10 10 1 73 17 140 34 67 16 133 32 147
34 14 3 59 14 100 26 41 11 84 22 95 24 11 2 21 4 23 4 1 1 3 1 5 0 1 0 14 4
30 10 15 6 38 13 50 15 12 2 46 11 75 19 28 9 52 14 52 11 0 -3 6 -2 13 3 13
8 19 10 62 19 17 3 37 8 45 11 8 3 22 7 30 8 8 1 70 16 137 34 67 17 130 32
140 34 10 2 36 9 58 15 22 6 43 12 47 12 4 0 26 7 48 15 22 8 40 12 40 9 0 -3
6 -2 13 3 6 4 21 9 32 10 38 5 250 55 260 61 11 7 24 10 72 18 18 3 44 9 59
13 15 4 40 8 56 9 24 2 28 -1 29 -25z m439 8 c0 -5 17 -20 38 -32 45 -27 285
-181 399 -256 45 -29 87 -53 92 -53 6 0 11 -4 11 -10 0 -5 7 -10 15 -10 9 0
18 -7 21 -15 4 -8 15 -15 25 -15 10 0 19 -4 19 -9 0 -5 16 -19 36 -31 19 -12
32 -25 29 -29 -4 -3 -50 -7 -103 -8 -86 -3 -156 -6 -379 -16 -34 -2 -67 -1
-72 3 -6 3 -11 34 -12 68 -1 37 -7 66 -15 73 -7 6 -39 13 -71 15 -31 3 -59 6
-61 8 -7 8 -5 303 2 314 9 14 26 16 26 3z m-323 -108 c21 -10 40 -21 43 -24
10 -12 90 -49 90 -42 0 8 20 -18 20 -27 0 -3 -26 -5 -58 -4 -31 0 -72 -3 -90
-7 -17 -4 -35 -3 -38 2 -3 5 -10 7 -15 3 -6 -3 -9 18 -8 55 1 34 6 61 10 61 5
0 25 -8 46 -17z m167 -158 c-4 -8 -12 -15 -20 -15 -8 0 -14 -4 -14 -9 0 -8
-36 -25 -50 -23 -3 0 -14 -5 -25 -11 -16 -8 -57 -11 -105 -8 -12 1 -13 41 -2
58 8 13 35 17 144 21 66 2 77 0 72 -13z m52 -30 c-5 -20 -13 -25 -36 -25 -17
0 -32 0 -35 0 -13 0 -6 15 11 25 11 5 21 13 24 16 7 8 34 17 39 13 2 -2 1 -15
-3 -29z m-328 -12 c3 -30 1 -33 -25 -34 -71 -2 -85 -13 -143 -110 -38 -65 -43
-69 -78 -70 -67 -3 -137 -7 -137 -9 0 -1 -38 -3 -85 -5 -124 -5 -291 -15 -325
-20 -16 -3 -82 -7 -145 -10 -63 -3 -130 -7 -147 -8 -18 -2 -33 1 -33 6 0 4 -6
5 -12 0 -13 -8 -27 -9 -203 -17 -283 -14 -352 -17 -485 -21 -80 -3 -206 -7
-280 -11 -74 -3 -154 -6 -177 -7 -24 -1 -43 -4 -43 -7 0 -3 -20 -5 -44 -5 -44
0 -56 20 -13 22 58 3 138 13 180 23 26 5 50 10 54 9 5 -1 10 -1 13 1 3 1 21 3
40 5 38 3 91 11 130 20 14 3 43 8 65 11 22 2 54 7 70 9 17 3 50 7 75 10 25 3
56 8 70 10 24 5 74 12 135 20 17 2 30 4 30 5 0 1 14 3 30 5 17 1 48 6 70 10
41 7 68 11 140 19 22 3 49 7 60 9 11 3 43 8 70 11 28 4 61 9 75 11 14 2 43 6
65 9 39 6 60 10 120 22 17 3 37 6 45 6 8 0 35 4 60 8 25 5 69 11 99 15 30 4
63 9 75 11 19 4 84 13 131 20 11 1 20 3 20 4 0 1 14 3 30 5 17 1 48 6 70 9 22
4 56 9 75 11 19 2 51 7 70 10 19 3 62 7 95 11 33 3 62 8 65 10 2 3 13 4 25 2
15 -2 21 -12 23 -35z m226 -171 c3 -9 5 -124 4 -255 -2 -172 -6 -241 -14 -248
-7 -6 -84 -12 -171 -15 -87 -3 -188 -6 -225 -8 -37 -1 -72 1 -79 5 -22 13 -2
91 49 189 95 184 134 255 144 261 5 3 9 9 9 13 -1 3 5 19 13 34 13 24 21 29
63 31 26 1 48 3 49 4 1 1 36 3 77 4 65 3 76 0 81 -15z m929 -34 c15 4 18 2 12
-9 -19 -29 -89 -98 -96 -93 -7 4 -5 44 3 86 4 17 30 27 47 18 8 -4 23 -5 34
-2z m-120 -7 c8 -1 3 -83 -7 -99 -3 -5 -15 -8 -25 -5 -10 3 -22 0 -25 -6 -5
-7 -44 -11 -101 -11 l-95 0 12 25 c6 13 15 22 20 19 5 -3 7 -2 6 3 -2 4 8 22
21 40 20 27 27 30 44 21 33 -17 87 -70 81 -79 -6 -10 10 -12 19 -3 4 4 -3 15
-15 25 -11 11 -17 19 -13 19 4 0 -2 8 -13 19 -12 10 -22 23 -22 28 0 7 70 10
113 4z m-339 -10 c5 -1 7 -4 3 -7 -3 -3 -2 -17 3 -30 5 -13 6 -26 1 -28 -5 -3
-7 -17 -6 -31 4 -31 -18 -33 -43 -4 -9 11 -29 34 -44 51 -18 20 -24 35 -19 42
8 9 55 12 105 7z m127 -8 c-16 -29 -78 -93 -89 -93 -10 0 -8 82 3 100 3 5 26
10 51 10 40 0 44 -2 35 -17z m366 -50 c-2 -30 -7 -38 -22 -39 -11 -1 -28 -5
-38 -9 -14 -6 -16 -4 -10 11 4 11 14 24 22 31 9 7 12 13 7 13 -11 0 25 29 37
30 4 0 6 -17 4 -37z m-1435 7 c-5 -20 -42 -64 -43 -51 -1 6 -2 17 -3 24 -4 22
13 45 31 42 10 -1 17 -8 15 -15z m862 -27 c25 -26 43 -50 38 -55 -4 -4 -28 -9
-52 -10 l-45 -3 -2 45 c-2 45 2 70 11 70 3 0 25 -21 50 -47z m-933 28 c7 -1 3
-57 -7 -88 -8 -30 -18 -29 -49 4 -14 15 -25 23 -25 18 0 -6 11 -22 25 -37 l25
-28 -22 -5 c-13 -3 -69 -7 -125 -9 -116 -5 -117 -4 -49 68 18 20 31 36 27 36
-3 0 4 7 17 15 24 18 54 8 71 -23 5 -9 13 -13 18 -9 4 5 0 13 -10 18 -13 8
-15 15 -8 28 7 13 21 17 58 15 26 0 51 -2 54 -3z m-204 -14 c5 -8 -86 -107
-100 -107 -8 0 -2 75 9 103 5 13 16 17 46 15 22 -1 42 -6 45 -11z m-128 -35
c-1 -20 -4 -48 -8 -61 -6 -22 -8 -23 -23 -8 -8 9 -18 13 -21 10 -3 -3 1 -12 9
-20 8 -9 13 -18 10 -20 -8 -9 -246 -25 -246 -17 0 12 30 53 70 95 l46 48 52
-39 c58 -45 67 -44 21 2 -36 36 -29 43 41 45 l50 2 -1 -37z m-333 8 c7 0 -7
-95 -14 -102 -11 -11 -79 53 -92 87 -6 16 -3 21 19 26 14 3 39 2 56 -3 16 -4
30 -8 31 -8z m128 9 c3 -3 -19 -31 -49 -63 -30 -32 -55 -52 -56 -45 0 8 -2 22
-4 32 -2 9 1 17 6 17 6 0 8 4 5 9 -4 5 -2 20 3 34 8 21 15 24 50 23 22 -1 43
-4 45 -7z m-471 -18 c24 -1 24 -91 -1 -114 -25 -23 -70 -38 -77 -26 -4 5 -12
6 -18 2 -16 -10 -147 -10 -153 -1 -3 5 2 11 10 14 9 3 16 12 16 19 0 7 16 27
35 44 19 17 35 34 35 38 0 5 6 8 14 8 15 0 96 -70 96 -84 0 -5 7 -11 15 -15
25 -9 17 20 -10 34 -14 7 -25 20 -25 27 0 8 -4 12 -9 9 -9 -6 -21 16 -21 37 0
11 20 13 93 8z m147 4 c0 -14 -88 -105 -102 -105 -10 0 -3 84 9 103 5 8 93 10
93 2z m-465 -20 c16 -3 20 -11 19 -37 -2 -39 -12 -68 -25 -68 -17 0 -78 75
-79 96 0 21 17 23 85 9z m140 5 c5 -9 -81 -100 -94 -100 -5 0 -6 16 -4 36 6
52 7 58 17 66 13 9 75 8 81 -2z m398 -4 c9 -7 17 -17 17 -21 0 -4 16 -23 35
-42 19 -19 33 -38 30 -42 -4 -7 -27 -9 -177 -15 -51 -3 -61 9 -33 38 8 8 15
20 15 26 0 6 5 8 10 5 6 -3 10 -2 10 3 0 18 42 62 58 62 9 0 25 -7 35 -14z
m-721 -20 c-3 -14 -84 -106 -94 -106 -2 0 -3 14 -3 30 -1 17 3 30 7 30 4 0 5
6 2 14 -11 29 13 52 53 51 31 -1 37 -5 35 -19z m-315 -10 c-3 -14 -89 -105
-100 -106 -14 0 2 104 17 116 19 13 86 6 83 -10z m189 -1 c5 -22 1 -50 -11
-78 -6 -15 -14 -10 -55 35 -26 29 -44 56 -39 59 6 3 30 6 55 5 36 0 46 -4 50
-21z m194 10 c5 3 11 -4 15 -15 3 -11 13 -20 21 -20 8 0 14 -5 14 -10 0 -6 12
-22 26 -37 14 -14 23 -27 21 -29 -8 -8 -216 -9 -223 -1 -4 4 -1 7 6 7 7 0 11
3 8 6 -3 3 6 18 20 34 15 15 38 40 52 55 13 15 26 22 28 16 2 -6 7 -9 12 -6z
m-529 -3 c18 -2 20 -8 17 -54 -2 -42 -7 -54 -22 -56 -11 -3 -16 0 -12 7 4 6 3
11 -2 11 -13 0 -74 79 -68 89 5 7 26 8 87 3z m-183 -11 c6 0 11 -6 10 -12 -4
-15 -79 -89 -90 -89 -11 0 0 81 13 96 5 6 19 10 32 9 12 -1 28 -3 35 -4z m430
-40 c43 -41 62 -68 50 -72 -2 0 -54 -3 -117 -5 l-114 -5 29 34 c16 19 40 48
54 66 14 17 30 31 35 31 6 0 34 -22 63 -49z m-1078 25 c0 4 7 1 15 -6 13 -10
8 -19 -34 -60 -27 -27 -46 -52 -43 -56 4 -5 0 -3 -10 4 -13 10 -14 20 -8 43
10 35 10 33 10 60 0 11 5 17 10 14 6 -3 10 -2 10 4 0 7 8 7 25 1 14 -5 25 -7
25 -4z m160 4 c0 -3 12 -6 28 -5 26 0 27 -2 27 -52 1 -60 -12 -72 -46 -42 -33
29 -37 23 -5 -10 l27 -28 -33 -5 c-61 -9 -208 -9 -208 0 0 5 10 20 23 34 12
14 35 41 52 61 30 36 44 37 78 9 9 -8 20 -12 24 -8 5 4 0 12 -10 18 -13 7 -15
13 -8 22 10 12 51 17 51 6z m178 1 c15 -1 -9 -39 -53 -84 -32 -31 -60 -37 -48
-9 5 9 8 31 8 47 0 40 14 54 50 50 17 -2 36 -4 43 -4z m185 -2 c14 -13 10 -86
-5 -95 -5 -4 -26 10 -47 30 -20 20 -41 36 -46 36 -5 0 8 -16 29 -35 21 -19 35
-35 30 -35 -5 0 -2 -5 6 -10 13 -9 13 -11 0 -19 -8 -5 -18 -7 -22 -5 -4 3 -8
-1 -9 -8 0 -7 -2 -8 -5 -3 -2 6 -39 8 -94 5 -73 -4 -89 -2 -85 8 3 8 5 18 5
23 0 6 5 7 10 4 6 -3 10 -1 10 4 0 6 8 20 18 32 49 59 58 66 77 58 30 -11 35
-10 35 6 0 18 74 21 93 4z m219 -14 c16 -14 26 -25 22 -25 -5 0 2 -7 14 -16
12 -8 20 -19 17 -24 -3 -5 2 -13 11 -18 13 -7 14 -11 4 -17 -16 -10 -220 -15
-220 -5 0 4 11 19 25 34 14 15 25 29 25 32 0 9 54 64 63 64 5 0 22 -11 39 -25z
m-851 -4 c11 -59 -6 -124 -34 -133 -26 -9 -72 -3 -69 10 1 6 -3 12 -8 12 -10
0 -4 42 8 63 2 5 22 -11 43 -34 22 -24 39 -39 39 -33 0 5 -15 25 -33 44 -19
19 -39 45 -45 57 -11 19 -9 22 11 25 30 4 87 -3 88 -11z m997 -190 c11 -6 22
-8 25 -5 6 6 24 -46 21 -63 -1 -7 -2 -24 -3 -37 -1 -22 -36 -45 -81 -53 -28
-5 -70 19 -71 41 -1 11 -2 30 -3 41 -1 22 21 64 44 81 16 13 38 11 68 -5z
m2480 -545 c2 -3 -96 -68 -113 -75 -5 -2 -18 -10 -27 -19 -28 -24 -44 -9 -42
39 2 60 1 57 32 61 28 3 145 -2 150 -6z m111 0 c6 -7 13 -63 15 -125 3 -61 7
-115 9 -119 3 -4 1 -17 -4 -29 -6 -16 -16 -22 -33 -21 -13 1 -22 6 -20 10 3 4
0 8 -7 8 -15 0 -102 40 -109 50 -3 4 -28 19 -57 33 -28 15 -54 31 -58 37 -7
11 71 90 90 90 3 0 11 5 18 11 23 20 109 65 127 66 10 1 23 -4 29 -11z m-217
-212 c29 -14 71 -36 93 -49 21 -13 42 -22 46 -19 4 2 9 -3 13 -11 4 -11 -3
-15 -27 -16 -18 0 -65 -2 -104 -3 l-73 -3 -2 31 c-3 76 -4 96 -1 96 1 0 26
-12 55 -26z m160 -142 c9 -9 8 -12 -6 -12 -10 0 -14 -4 -10 -12 5 -8 2 -9 -9
-5 -10 3 -17 2 -17 -4 0 -5 -8 -13 -17 -16 -10 -4 -48 -26 -85 -49 -36 -24
-69 -40 -72 -37 -3 4 -6 35 -6 69 0 54 3 64 20 69 11 3 24 4 29 0 5 -3 12 -2
14 2 8 13 146 8 159 -5z m72 -63 c2 -24 4 -48 6 -54 1 -5 1 -12 0 -15 -5 -13
-6 -50 -1 -50 7 0 5 -105 -3 -125 -4 -12 -10 -13 -33 -3 -15 7 -30 15 -33 18
-10 11 -127 77 -168 95 -23 11 -42 22 -42 26 0 8 76 59 90 59 5 0 10 4 10 9 0
5 8 11 18 15 9 3 35 17 57 31 22 14 48 28 58 32 9 3 17 10 17 16 0 8 3 8 11 0
6 -6 12 -30 13 -54z m-219 -165 c22 -9 59 -30 82 -46 23 -15 44 -28 48 -28 7
0 35 -26 35 -33 0 -6 -47 0 -59 7 -5 4 -12 3 -14 -1 -6 -10 -125 -9 -134 1 -9
9 -13 127 -5 122 4 -2 25 -12 47 -22z m140 -148 c11 -3 23 -5 27 -5 4 -1 5 -8
1 -16 -3 -9 -8 -14 -11 -11 -2 3 -17 -3 -32 -14 -16 -11 -33 -20 -39 -20 -6 0
-11 -4 -11 -10 0 -5 -5 -10 -10 -10 -6 0 -27 -11 -48 -24 -20 -12 -47 -26 -59
-30 -20 -6 -21 -3 -22 41 0 26 2 61 5 76 5 25 10 28 35 25 16 -3 29 -2 29 1 0
7 102 4 135 -3z m99 -73 c2 -23 7 -46 10 -52 4 -6 3 -11 -3 -11 -6 0 -7 -11
-2 -27 8 -34 8 -160 -1 -168 -6 -6 -78 22 -88 35 -3 4 -27 17 -55 30 -27 13
-56 30 -63 36 -6 7 -22 16 -35 20 -44 13 -48 24 -18 50 16 13 34 24 40 24 6 0
11 5 11 10 0 6 5 10 10 10 6 0 35 16 65 35 30 19 55 31 55 27 0 -4 4 -2 8 4
11 17 46 33 54 26 4 -4 9 -26 12 -49z m-218 -180 c27 -15 71 -39 98 -53 27
-14 51 -30 53 -35 2 -7 -34 -11 -104 -10 l-108 1 -2 62 c-1 34 2 62 7 62 4 0
29 -12 56 -27z m146 -151 c8 -8 6 -14 -13 -21 -28 -12 -59 -35 -59 -45 0 -3 9
-6 21 -6 11 0 18 3 16 8 -3 4 24 22 59 40 65 33 72 32 65 -10 0 -5 2 -8 7 -8
8 0 10 -196 1 -204 -4 -4 -5 -20 -3 -37 5 -43 -16 -63 -45 -43 -11 8 -21 12
-21 7 0 -4 -4 -3 -8 2 -9 13 -69 55 -78 55 -3 0 -26 14 -51 30 -24 17 -46 30
-49 30 -3 0 -13 7 -22 16 -15 15 -14 18 13 40 17 13 34 24 38 24 5 0 15 6 23
14 7 8 19 16 26 18 6 2 8 9 4 16 -4 7 -26 -2 -68 -29 -42 -27 -64 -36 -69 -28
-7 12 -3 124 5 137 8 13 195 7 208 -6z m-152 -231 c0 -5 8 -11 18 -15 38 -13
154 -87 147 -94 -8 -8 -196 -9 -201 -1 -3 6 -8 95 -5 112 1 10 41 9 41 -2z
m175 -163 c8 -7 -114 -87 -132 -88 -7 0 -13 -4 -13 -8 0 -4 -15 -14 -32 -21
-24 -10 -29 -15 -16 -18 9 -2 34 7 54 21 21 14 41 23 45 21 4 -3 10 2 13 11 3
8 10 12 16 9 5 -3 10 -1 10 4 0 6 7 11 15 11 8 0 15 5 15 12 0 6 3 8 6 5 4 -4
19 3 35 14 27 19 28 19 37 2 11 -21 13 -274 3 -291 -4 -7 -25 -1 -61 19 -30
16 -63 32 -72 35 -10 4 -18 10 -18 13 0 4 -6 8 -13 8 -10 0 -88 44 -106 59 -2
2 2 10 8 18 10 12 8 16 -8 21 -12 3 -22 14 -22 23 -5 58 -3 80 9 104 l12 28
105 -3 c57 -1 107 -6 110 -9z m-165 -237 c3 -4 21 -15 40 -24 65 -33 101 -55
98 -62 -2 -4 -46 -8 -99 -9 l-96 -1 1 58 c0 57 1 58 26 52 13 -4 27 -10 30
-14z m143 -140 c21 -1 23 -21 2 -21 -8 0 -15 -4 -15 -10 0 -5 -5 -10 -11 -10
-6 0 -24 -9 -40 -21 -16 -11 -29 -17 -29 -13 0 4 -10 -1 -22 -12 -30 -26 -96
-55 -102 -45 -6 9 1 119 8 130 4 6 145 8 209 2z m74 -34 c4 -7 8 -76 10 -154
2 -161 3 -160 -69 -118 -24 14 -51 28 -60 32 -10 3 -18 9 -18 14 0 5 -6 9 -12
9 -7 0 -29 10 -48 22 -19 12 -37 23 -40 23 -33 9 -38 18 -28 41 6 13 15 24 20
24 5 0 26 11 47 24 21 14 42 22 45 19 3 -4 6 -1 6 5 0 6 9 14 20 17 11 4 17
11 14 17 -4 6 -2 8 4 4 11 -6 62 12 62 23 0 12 40 10 47 -2z m-162 -240 c22
-12 49 -30 59 -39 11 -10 23 -18 28 -18 4 0 8 -4 8 -8 0 -9 -182 -8 -197 1 -5
3 -10 33 -11 66 l-1 61 37 -21 c20 -11 55 -30 77 -42z m102 -120 c8 -9 -33
-41 -89 -69 -26 -13 -48 -29 -48 -36 0 -8 18 -3 53 17 88 50 138 74 143 68 10
-9 11 -231 2 -249 -6 -12 -5 -18 2 -18 7 0 8 -6 1 -19 -6 -10 -7 -22 -3 -26 4
-4 -4 -2 -18 5 -14 8 -27 13 -30 13 -3 0 -21 9 -40 21 -19 12 -48 28 -65 36
-16 8 -34 19 -40 23 -5 5 -25 17 -42 27 -41 24 -41 39 -3 65 16 11 30 26 30
33 0 16 -3 15 -29 -7 -12 -11 -30 -18 -39 -17 -14 3 -17 13 -15 62 1 32 4 63
7 69 4 12 211 14 223 2z m-162 -237 c17 -11 48 -29 70 -41 22 -12 42 -25 45
-29 3 -4 15 -10 28 -14 46 -15 10 -23 -90 -21 l-103 2 -2 61 c-3 69 3 73 52
42z m138 -159 c15 -1 27 -6 27 -12 0 -5 -4 -7 -10 -4 -5 3 -10 1 -10 -4 0 -6
-7 -11 -15 -11 -8 0 -15 -4 -15 -10 0 -5 -3 -9 -7 -8 -5 1 -28 -10 -53 -24
-29 -17 -58 -26 -79 -25 -32 2 -35 4 -34 35 1 17 2 34 3 37 2 3 4 10 5 15 1 6
3 11 4 13 1 3 79 2 184 -2z m77 -56 c0 -46 -1 -47 -50 -47 -106 0 -123 7 -72
32 15 8 35 21 45 29 9 8 17 11 17 7 0 -4 10 0 22 8 33 24 38 20 38 -29z m-367
-498 c10 -2 27 -11 37 -20 11 -9 20 -13 21 -9 2 24 28 -71 28 -106 1 -38 -4
-48 -39 -81 -34 -32 -47 -37 -83 -36 -72 2 -144 71 -133 127 10 51 31 94 55
115 25 22 46 24 114 10z m421 -17 c14 -5 26 -17 27 -27 0 -10 2 -26 4 -35 2
-10 -1 -20 -6 -24 -5 -3 -2 -12 6 -21 11 -11 15 -30 13 -62 -2 -25 -6 -44 -9
-41 -3 3 -12 0 -20 -5 -8 -6 -44 -10 -81 -10 -71 1 -100 14 -80 37 12 15 22
108 12 108 -4 0 -5 11 -2 25 2 15 0 25 -7 25 -15 0 -14 37 1 42 20 7 114 -1
142 -12z m491 -61 c-2 -58 2 -76 17 -91 10 -10 22 -18 27 -18 13 0 43 49 36
60 -3 6 -2 10 3 10 10 0 9 24 -2 57 -4 13 -13 20 -21 17 -9 -4 -13 1 -11 13 2
13 14 20 43 23 48 7 64 3 57 -14 -5 -13 -10 -65 -13 -146 -2 -51 -22 -72 -73
-75 -49 -2 -94 16 -102 42 -6 18 -16 79 -21 120 -1 13 -8 30 -16 39 -8 10 -13
20 -12 23 2 6 74 19 84 14 3 -1 5 -35 4 -74z m-1439 57 c41 -13 52 -86 17
-111 -10 -7 -23 -10 -30 -8 -19 7 -52 -24 -48 -45 2 -9 4 -17 5 -17 1 0 3 -11
6 -24 3 -17 1 -22 -11 -18 -8 4 -17 3 -19 -2 -3 -4 -15 -7 -28 -6 -19 2 -23 7
-20 31 7 89 6 141 -6 163 -7 13 -9 28 -5 32 15 14 102 18 139 5z m264 -4 c17
-17 19 -37 8 -69 -9 -28 9 -83 27 -83 13 0 31 -37 23 -46 -3 -2 -18 -7 -35
-10 -33 -7 -63 15 -63 45 0 10 -6 24 -14 30 -20 17 -38 -15 -23 -40 15 -25 -5
-46 -45 -47 -42 -1 -50 5 -37 30 15 28 12 143 -3 168 -11 17 -10 22 2 30 23
16 142 9 160 -8z m951 8 c10 -6 19 -17 19 -26 0 -8 9 -33 20 -54 11 -22 18
-40 15 -40 -3 0 1 -13 10 -30 9 -16 20 -30 25 -30 6 0 10 -10 10 -23 0 -20 -5
-22 -55 -25 -44 -3 -56 0 -62 13 -3 10 0 21 8 25 19 12 5 23 -35 25 -32 3 -33
1 -29 -29 4 -31 3 -32 -36 -34 -21 -2 -42 1 -45 7 -3 5 6 35 21 67 20 42 27
74 26 112 l-1 52 45 0 c24 0 53 -5 64 -10z m-470 -126 c16 -10 9 -35 -12 -42
-25 -10 -78 -3 -80 9 -1 5 -2 15 -3 22 -1 6 3 15 9 19 10 8 70 2 86 -8z"/>
<path d="M5985 2113 c-23 -34 -26 -75 -7 -95 20 -24 29 -23 48 7 18 28 25 73
12 81 -4 3 -6 9 -3 14 3 4 -4 10 -15 13 -13 3 -24 -3 -35 -20z"/>
<path d="M6385 2120 c-11 -17 5 -32 21 -19 7 6 11 15 8 20 -7 12 -21 11 -29
-1z"/>
<path d="M6394 2035 c0 -27 4 -29 25 -16 16 11 8 41 -12 41 -7 0 -13 -11 -13
-25z"/>
<path d="M5464 2115 c-9 -19 -8 -22 5 -20 17 2 27 30 14 38 -5 3 -13 -5 -19
-18z"/>
<path d="M5690 2131 c0 -28 21 -37 36 -16 16 22 10 35 -17 35 -12 0 -19 -7
-19 -19z"/>
<path d="M6636 2064 c-3 -8 -2 -12 4 -9 6 3 10 1 10 -6 0 -10 3 -10 11 -2 11
11 5 33 -11 33 -4 0 -11 -7 -14 -16z"/>
<path d="M3740 5639 c0 -5 5 -7 10 -4 6 3 10 8 10 11 0 2 -4 4 -10 4 -5 0 -10
-5 -10 -11z"/>
<path d="M3755 5609 c-4 -6 -5 -12 -2 -15 2 -3 7 2 10 11 7 17 1 20 -8 4z"/>
<path d="M3680 5540 c0 -5 -8 -6 -18 -3 -34 8 -56 -31 -59 -110 -1 -40 -4
-103 -6 -141 -2 -47 1 -70 9 -73 15 -6 44 -11 65 -12 9 -1 15 -11 16 -28 0
-25 -10 -43 -71 -122 -9 -12 -8 -12 12 0 12 8 22 17 22 21 0 5 6 8 14 8 19 0
36 39 38 87 1 39 16 44 157 57 14 1 27 10 31 21 5 15 6 240 1 277 -2 17 -141
34 -141 17 0 -4 -16 -3 -35 1 -19 4 -35 4 -35 0z m176 -153 c1 -111 -7 -136
-41 -123 -8 3 -15 2 -15 -2 0 -6 -121 -9 -155 -4 -6 1 -9 23 -7 49 7 120 7
139 -1 151 -6 8 -5 12 2 12 7 0 10 4 6 9 -7 12 21 16 125 16 l85 0 1 -108z"/>
<path d="M3667 5453 c4 -10 12 -23 17 -29 6 -6 22 -26 36 -44 14 -18 31 -39
38 -46 6 -7 12 -17 12 -22 0 -10 23 -22 42 -22 12 0 -5 28 -71 117 -25 35 -54
63 -63 63 -12 0 -15 -5 -11 -17z"/>
<path d="M3760 5180 c-1 -8 -3 -27 -4 -42 0 -17 -20 -46 -52 -81 -28 -31 -51
-61 -52 -69 0 -7 -3 -25 -5 -40 -6 -40 21 -60 73 -55 53 5 64 18 65 72 0 25 1
45 3 45 2 0 15 -12 29 -27 l26 -28 -8 25 c-9 28 -19 37 -53 46 -31 9 -34 3
-20 -34 14 -38 5 -60 -33 -79 -19 -10 -28 -10 -44 1 -11 7 -20 20 -19 27 1 44
19 77 56 104 48 35 56 55 47 110 -3 22 -7 33 -9 25z"/>
<path d="M3582 4993 c-33 -67 -13 -136 46 -167 16 -8 37 -13 48 -11 10 2 26 4
34 4 13 1 13 3 0 10 -8 6 -18 8 -22 5 -9 -6 -66 23 -86 42 -21 22 -25 76 -8
117 20 48 12 48 -12 0z"/>
<path d="M3795 4886 c-22 -24 -47 -46 -55 -48 -8 -3 -13 -8 -10 -11 7 -8 76
18 92 34 7 8 13 26 14 42 0 15 0 27 0 27 -1 0 -19 -20 -41 -44z"/>
<path d="M2359 4626 c-4 -4 -43 -8 -184 -21 -83 -8 -161 -16 -195 -20 -38 -5
-151 -16 -215 -20 -22 -2 -40 -4 -40 -5 0 -1 -18 -3 -40 -5 -133 -12 -173 -16
-200 -19 -37 -4 -158 -17 -205 -21 -19 -2 -66 -6 -105 -11 -38 -4 -83 -8 -100
-10 -16 -1 -30 -3 -30 -4 0 -1 -22 -3 -48 -4 -51 -3 -68 -16 -60 -47 6 -23 11
-26 44 -33 13 -3 53 -12 89 -21 36 -9 74 -18 85 -20 36 -7 50 -10 60 -16 6 -4
20 -5 33 -4 12 1 22 -1 22 -5 0 -4 7 -7 16 -7 15 0 14 2 -1 13 -10 8 -22 11
-26 8 -5 -3 -9 -2 -9 3 0 9 -91 53 -111 53 -8 0 -9 3 -4 9 6 6 51 12 100 16
176 11 247 16 425 31 75 7 130 11 255 19 136 9 190 13 190 15 0 1 27 3 60 5
33 2 93 6 133 9 53 4 72 2 74 -7 1 -6 2 -34 4 -62 1 -27 3 -50 4 -50 0 0 3
-40 5 -90 7 -129 21 -389 28 -501 0 -6 5 -11 11 -11 6 -1 26 -6 44 -12 l33
-10 -6 122 c-4 67 -9 150 -11 185 -2 34 -6 90 -8 125 -2 34 -7 116 -11 182
-13 204 -13 210 10 209 37 -2 129 -23 193 -43 18 -5 35 -10 37 -10 3 -1 6 -1
8 -2 1 0 11 -2 22 -4 11 -2 34 -7 50 -10 17 -4 37 -8 45 -9 9 -1 21 -6 28 -10
7 -4 16 -6 18 -3 3 3 21 -1 40 -9 19 -8 34 -11 34 -7 0 10 20 -20 20 -30 0 -5
-4 -6 -9 -3 -5 3 -12 -1 -15 -10 -9 -23 -4 -25 24 -11 15 8 25 23 27 42 3 16
1 27 -3 23 -3 -4 -22 -1 -40 7 -19 8 -34 12 -34 10 0 -2 -24 3 -52 11 -48 14
-86 23 -113 28 -5 1 -15 5 -22 9 -6 4 -24 9 -40 11 -15 2 -64 14 -108 26 -70
20 -215 36 -226 26z"/>
<path d="M2791 4353 c18 -21 37 -40 41 -43 3 -3 16 -29 28 -59 21 -53 25 -76
35 -201 3 -36 8 -94 11 -130 3 -36 7 -92 9 -125 2 -33 4 -60 5 -60 1 0 4 -29
6 -65 2 -36 5 -83 8 -105 2 -22 4 -45 5 -51 1 -6 17 -29 37 -50 l36 -39 -6 90
c-3 50 -8 101 -10 115 -3 14 -7 59 -10 100 -3 41 -8 91 -10 110 -3 19 -7 64
-11 100 -3 36 -7 81 -10 100 -2 19 -7 67 -10 106 -10 122 -18 144 -68 174 -18
11 -28 20 -22 20 5 0 -11 11 -37 25 -63 34 -68 32 -27 -12z"/>
<path d="M1479 4253 c-13 -34 -27 -63 -31 -63 -5 0 -8 -6 -8 -12 0 -20 -43
-117 -50 -113 -9 6 -35 -13 -28 -20 4 -4 25 -9 48 -11 35 -3 42 0 49 19 5 12
17 40 27 62 10 22 17 43 16 48 -1 4 3 7 8 7 6 0 10 8 10 18 0 10 7 28 16 40 8
12 12 22 8 22 -3 0 -1 7 6 15 17 20 7 41 -23 47 -22 4 -27 -1 -48 -59z"/>
<path d="M1933 4252 c-9 -6 -116 -300 -110 -303 29 -11 35 1 84 147 48 145 52
172 26 156z"/>
<path d="M990 4017 c-19 -7 -38 -14 -43 -14 -4 -1 -57 -18 -117 -38 -60 -20
-113 -37 -117 -37 -21 -1 -84 -41 -98 -62 -18 -27 -46 -185 -49 -273 -1 -18
-3 -33 -6 -33 -3 0 -6 -8 -6 -17 -1 -24 -19 -170 -29 -238 -3 -16 -7 -48 -10
-70 -3 -22 -7 -49 -10 -60 -2 -11 -7 -47 -10 -80 -4 -33 -9 -69 -12 -79 -3
-11 -7 -40 -9 -65 -2 -25 -6 -57 -9 -71 -3 -14 -8 -61 -11 -105 -10 -146 31
-152 137 -18 34 43 67 81 73 85 6 4 8 8 4 8 -4 0 3 11 15 24 12 13 36 41 52
62 17 20 35 42 40 48 6 6 30 36 55 66 55 69 76 90 90 90 5 0 10 4 10 9 0 5 17
13 39 18 58 15 149 6 177 -18 8 -6 14 -8 14 -3 0 4 5 3 12 -4 7 -7 22 -12 33
-12 12 0 25 -3 28 -6 4 -4 31 -17 60 -29 54 -22 54 -22 70 -2 17 21 17 89 2
227 -3 30 -8 73 -10 95 -2 22 -5 42 -6 45 -2 7 -3 15 -13 80 -4 30 -17 89 -28
130 -11 41 -21 80 -22 85 -26 101 -124 227 -203 260 -42 18 -48 18 -93 2z m66
-39 c28 -23 62 -63 88 -100 25 -37 81 -190 91 -250 3 -17 8 -34 10 -37 2 -4 6
-25 9 -47 4 -22 8 -49 10 -59 20 -106 39 -331 30 -347 -4 -5 -10 -5 -17 0 -7
5 -36 17 -64 26 -29 10 -55 22 -59 27 -3 5 -9 7 -14 4 -5 -3 -12 0 -16 6 -5 9
0 10 17 5 70 -21 125 -23 114 -6 -4 6 -8 36 -11 68 -2 31 -6 75 -9 97 -3 22
-8 56 -10 75 -8 61 -23 128 -45 210 -7 25 -13 50 -15 55 -1 6 -5 19 -9 30 -5
11 -12 32 -18 47 -6 15 -9 30 -9 33 1 3 -5 13 -14 21 -8 9 -15 24 -15 35 0 10
-4 19 -9 19 -5 0 -12 8 -15 18 -3 9 -20 32 -36 50 -23 23 -27 32 -15 32 9 0
23 -6 31 -12z"/>
<path d="M1240 3991 c0 -8 15 -32 33 -55 37 -46 69 -109 73 -145 5 -44 24 -77
47 -78 12 -1 23 -7 25 -13 2 -5 11 -10 21 -10 9 0 21 -4 27 -8 5 -5 56 -28
114 -52 58 -25 108 -49 112 -55 4 -5 8 -7 8 -3 0 3 51 -16 113 -44 134 -59
160 -71 167 -72 3 -1 22 -9 43 -19 20 -9 54 -25 75 -34 20 -10 39 -18 42 -18
15 0 99 -41 128 -62 28 -21 62 -69 68 -98 2 -12 71 -191 84 -220 5 -11 19 -48
31 -83 17 -48 35 -76 77 -117 31 -30 59 -55 63 -55 8 0 33 -60 30 -72 0 -5 3
-8 9 -8 6 0 9 -3 8 -7 -1 -5 6 -26 16 -48 10 -22 22 -49 26 -60 4 -11 16 -38
25 -59 10 -22 21 -51 24 -64 5 -19 13 1 30 79 12 57 24 115 27 129 2 14 8 39
11 55 4 17 8 35 9 40 1 6 3 13 4 18 1 4 3 13 4 20 1 9 74 12 323 13 177 1 326
5 331 8 5 3 9 39 8 79 -1 57 -7 85 -26 123 -14 27 -27 51 -31 54 -3 3 -12 20
-20 38 -13 31 -14 31 -20 10 -3 -13 -2 -31 3 -40 5 -10 4 -19 -2 -23 -7 -4 -7
-12 0 -25 6 -11 6 -21 1 -24 -5 -3 -7 -14 -5 -24 5 -16 -12 -17 -249 -18
l-254 -1 -13 31 c-21 48 -106 240 -123 278 -29 64 -70 153 -87 193 -66 150
-100 205 -129 205 -6 0 -11 4 -11 8 0 13 -73 34 -340 98 -8 1 -69 17 -135 34
-105 27 -132 34 -180 44 -5 1 -19 5 -30 9 -11 3 -31 8 -45 11 -14 3 -43 10
-65 16 -53 14 -86 21 -107 23 -10 1 -18 5 -18 9 0 3 -8 7 -17 6 -10 0 -27 3
-38 5 -125 34 -226 60 -250 64 -16 3 -33 10 -37 16 -5 9 -8 8 -8 -2z m501
-178 c13 -16 12 -17 -3 -4 -10 7 -18 15 -18 17 0 8 8 3 21 -13z m62 -12 c4 -1
7 -6 7 -12 0 -8 -4 -9 -13 0 -8 6 -16 8 -19 5 -3 -3 -9 -1 -12 4 -3 6 2 9 11
7 10 -2 21 -4 26 -4z m124 -34 c15 -2 28 -9 29 -16 1 -6 0 -7 -3 -1 -2 5 -9 8
-13 5 -11 -7 -108 24 -116 36 -2 5 14 2 36 -6 23 -8 53 -16 67 -18z m77 -22
c11 0 21 -5 23 -12 3 -8 -4 -9 -23 -4 -15 4 -29 14 -32 22 -2 8 0 10 5 4 4 -6
17 -11 27 -10z m76 -21 c0 4 8 2 18 -3 11 -6 30 -12 43 -15 13 -3 76 -19 139
-36 63 -17 126 -33 140 -36 25 -5 70 -41 70 -55 0 -5 12 -34 27 -66 15 -32 26
-64 25 -70 -2 -7 2 -13 8 -13 5 0 9 -3 8 -7 -1 -5 11 -34 25 -67 15 -32 27
-60 27 -62 0 -2 12 -29 27 -61 15 -32 28 -62 29 -68 1 -5 13 -32 25 -60 13
-27 24 -52 24 -55 1 -3 9 -23 19 -45 10 -22 19 -67 21 -100 l4 -60 -16 30
c-10 17 -18 33 -19 38 -1 4 -3 10 -4 15 -1 4 -2 10 -1 15 0 4 -4 7 -9 7 -5 0
-9 3 -8 8 1 8 -6 28 -32 87 -9 22 -24 58 -31 80 -8 22 -16 42 -19 45 -7 7 -32
73 -33 88 0 6 -4 12 -9 12 -4 0 -8 7 -8 15 0 8 -4 23 -9 33 -16 31 -51 115
-56 135 -2 4 -4 10 -5 15 -1 4 -2 10 -1 15 0 4 -3 7 -9 7 -6 0 -9 3 -8 8 1 4
-3 16 -9 27 -6 11 -11 22 -10 25 2 11 -20 38 -43 52 -14 9 -86 33 -160 53 -74
20 -143 41 -152 46 -10 5 -27 9 -37 9 -21 0 -35 13 -24 24 3 3 12 1 20 -5 7
-6 13 -8 13 -5z"/>
<path d="M432 3776 c-122 -47 -122 -47 -138 -221 -4 -38 -8 -83 -10 -100 -3
-32 -14 -149 -19 -205 -2 -19 -6 -60 -9 -90 -8 -71 -15 -139 -22 -219 -2 -35
-7 -68 -10 -73 -6 -9 -4 -9 89 -11 38 -1 71 1 73 4 2 3 6 24 9 45 2 21 7 55
10 75 l5 36 -37 -12 c-20 -7 -44 -10 -54 -8 -30 8 -31 20 -14 208 4 39 8 99
10 135 2 36 4 65 5 65 1 0 3 20 5 45 9 130 16 172 31 195 9 14 21 25 28 26 6
0 18 2 26 5 62 16 74 16 86 0 10 -15 14 -10 23 34 13 59 14 100 4 99 -5 -1
-45 -16 -91 -33z"/>
<path d="M3040 3645 c0 -8 31 -30 73 -51 39 -20 74 -40 75 -45 2 -5 10 -9 18
-9 8 0 17 -7 20 -15 4 -8 10 -12 15 -10 7 5 90 -156 159 -310 13 -27 42 -92
66 -143 36 -78 44 -105 48 -170 2 -42 5 -82 5 -88 1 -6 18 -10 39 -9 l37 1 -3
97 -2 97 -67 133 c-37 72 -67 134 -68 137 -1 3 -25 52 -55 110 -30 58 -53 108
-52 113 1 4 -3 7 -8 7 -5 0 -10 6 -10 13 0 17 -67 85 -99 101 -26 13 -112 40
-163 51 -21 4 -28 1 -28 -10z"/>
<path d="M3057 3423 l4 -128 66 -145 c36 -80 70 -148 75 -151 5 -3 33 -6 61
-5 l52 1 0 107 c-1 68 -6 117 -14 135 -8 15 -17 37 -22 48 -41 100 -83 179
-108 206 -17 18 -31 28 -31 24 0 -4 -7 -1 -16 6 -9 7 -21 14 -28 15 -6 1 -18
5 -27 9 -15 6 -16 -6 -12 -122z"/>
<path d="M1449 3108 c7 -35 12 -37 316 -138 50 -17 97 -33 105 -37 8 -3 20 -7
25 -9 6 -1 91 -30 190 -64 99 -34 187 -63 195 -65 8 -2 38 -13 67 -23 28 -11
54 -17 57 -14 3 3 6 -1 6 -8 0 -7 3 -11 6 -7 4 3 22 0 40 -8 19 -8 34 -11 34
-8 0 3 7 0 15 -7 8 -7 22 -9 31 -6 18 7 8 20 -36 49 -21 13 -165 71 -205 81
-5 2 -17 6 -25 9 -8 3 -73 27 -145 52 -71 26 -177 64 -235 85 -58 21 -152 55
-210 75 -58 20 -118 42 -135 48 -16 7 -33 12 -37 12 -3 0 -10 3 -14 8 -4 4
-17 7 -29 7 -20 0 -22 -4 -16 -32z"/>
<path d="M1018 3009 c-15 -4 -29 -4 -32 -1 -3 3 -6 0 -6 -7 0 -7 -3 -10 -8 -7
-4 2 -25 -8 -47 -23 -32 -21 -71 -78 -188 -266 -81 -132 -157 -260 -169 -285
-12 -25 -25 -47 -29 -50 -7 -5 -25 -87 -22 -100 1 -3 3 -18 6 -35 3 -16 10
-42 16 -58 15 -39 105 -123 133 -124 46 -3 195 -12 271 -17 42 -4 112 -8 155
-11 42 -3 111 -8 152 -11 76 -5 158 -10 305 -18 44 -3 118 -8 165 -11 47 -4
112 -9 145 -10 33 -2 101 -7 150 -10 200 -15 243 -13 285 9 22 12 47 32 57 46
9 14 20 27 24 30 20 14 62 167 62 225 0 33 -16 91 -35 132 -36 76 -103 133
-199 170 -46 18 -97 38 -114 44 -16 7 -32 13 -35 14 -3 1 -14 5 -25 10 -11 4
-72 27 -135 52 -63 25 -164 65 -224 89 -60 24 -115 44 -122 44 -8 0 -14 5 -14
10 0 6 -3 9 -7 8 -5 -1 -24 4 -43 11 -19 8 -38 15 -42 16 -5 1 -10 4 -13 5 -3
1 -8 3 -12 5 -5 1 -19 6 -33 12 -14 6 -63 25 -110 43 -47 18 -91 37 -97 43 -7
5 -13 6 -13 3 0 -4 -9 -2 -20 4 -31 17 -102 27 -132 19z m67 -88 c6 -1 -8 -10
-30 -20 -22 -10 -47 -27 -56 -38 -38 -46 -68 -183 -41 -183 5 0 8 17 7 38 -1
40 24 101 54 131 32 32 94 46 119 28 6 -5 12 -6 12 -3 0 4 14 -2 30 -14 91
-65 89 -252 -3 -309 -72 -45 -169 -6 -197 80 -7 21 -17 39 -22 39 -11 0 -10
-27 1 -34 5 -3 12 -18 16 -33 7 -31 68 -92 94 -94 87 -8 118 0 158 43 34 36
60 105 58 151 -3 62 -16 117 -28 117 -6 0 -7 3 -4 6 3 4 2 15 -4 26 -10 18 -9
19 13 7 13 -7 26 -13 30 -14 3 0 10 -3 14 -7 4 -5 16 -8 26 -8 10 0 18 -5 18
-12 0 -6 3 -9 6 -6 3 4 22 -1 42 -9 75 -31 87 -36 97 -39 6 -1 78 -29 160 -62
256 -102 320 -126 328 -124 4 1 7 -3 7 -8 0 -5 3 -9 8 -8 7 1 25 -5 67 -22 11
-5 34 -14 51 -21 l30 -12 -38 -35 c-21 -19 -35 -38 -32 -43 3 -5 1 -9 -4 -9
-16 0 -41 -122 -32 -152 1 -5 3 -11 4 -15 14 -65 59 -142 84 -143 6 0 12 -4
12 -9 0 -23 91 -33 138 -14 31 13 32 13 20 -7 -12 -19 -28 -28 -68 -37 -20 -5
-22 -5 -130 2 -52 4 -121 8 -152 8 -32 1 -58 4 -58 7 0 3 -26 5 -58 6 -54 1
-178 8 -337 19 -38 2 -103 6 -142 9 -40 3 -77 7 -83 11 -5 3 -10 1 -10 -5 0
-6 -5 -8 -10 -5 -6 3 -43 8 -83 11 -39 2 -103 6 -142 9 -38 3 -110 8 -160 11
-81 5 -157 11 -178 13 -16 2 -64 58 -73 86 -15 45 -3 135 17 135 5 0 9 6 9 14
0 7 8 24 18 37 11 13 30 44 44 69 26 46 90 153 108 180 53 80 90 142 90 150 0
6 5 10 10 10 6 0 10 6 10 13 0 21 50 72 83 83 28 10 45 11 82 5z m1185 -474
c56 -49 86 -117 85 -187 -1 -58 -29 -105 -78 -129 -36 -18 -41 -18 -75 -4 -48
19 -67 37 -87 79 -18 39 -26 134 -11 134 5 0 7 3 3 6 -8 8 20 64 44 87 42 40
85 45 119 14z"/>
<path d="M728 2435 c-15 -8 -29 -24 -33 -35 -3 -11 -11 -20 -17 -20 -6 0 -8
-3 -5 -6 3 -4 2 -14 -3 -23 -5 -10 -5 -23 -1 -30 6 -9 10 -7 13 7 3 11 19 27
35 35 36 19 71 5 91 -36 23 -48 22 -70 -4 -115 l-26 -44 23 13 c46 24 71 67
71 123 0 67 -22 109 -69 134 -28 15 -42 15 -75 -3z"/>
<path d="M1001 2439 c-14 -5 -32 -20 -40 -32 -17 -23 -17 -26 -26 -72 l-6 -30
18 28 c10 15 23 27 30 27 7 0 13 4 13 9 0 12 31 7 58 -10 35 -22 46 -84 25
-138 -17 -44 -9 -51 21 -18 29 31 47 86 40 125 -7 41 -25 82 -37 82 -6 0 -7 3
-4 7 7 7 -39 33 -57 32 -6 0 -22 -5 -35 -10z"/>
<path d="M1254 2408 c-23 -19 -61 -78 -49 -78 3 0 1 -10 -6 -22 -8 -17 -3 -15
21 10 17 18 41 32 54 32 27 0 68 -29 72 -51 2 -8 5 -26 8 -40 4 -15 -2 -41
-14 -64 -11 -21 -18 -41 -15 -43 3 -3 5 0 5 7 0 7 4 10 9 7 12 -8 37 23 54 64
45 112 -57 242 -139 178z"/>
<path d="M1544 2390 c-25 -25 -40 -43 -42 -52 -1 -5 -2 -9 -3 -10 0 -2 -2 -16
-4 -33 l-4 -30 14 26 c25 47 74 58 112 25 25 -21 28 -31 28 -81 0 -43 -4 -59
-17 -66 -10 -6 -18 -14 -18 -19 0 -11 30 -1 46 15 55 53 56 162 3 215 -36 36
-85 40 -115 10z"/>
<path d="M1842 2365 c-18 -17 -35 -40 -37 -51 -2 -10 -4 -19 -5 -19 -1 0 -3
-8 -5 -17 -4 -24 12 -23 20 1 12 39 75 48 105 16 41 -44 42 -109 2 -157 -17
-20 -10 -23 17 -8 64 34 80 164 27 224 -12 15 -38 31 -57 35 -30 7 -38 4 -67
-24z"/>
<path d="M2240 2363 c-17 -6 -40 -32 -40 -46 0 -6 8 -3 18 6 25 23 51 4 56
-40 4 -26 -1 -37 -21 -53 -23 -18 -24 -20 -6 -20 52 0 90 103 52 141 -19 19
-32 22 -59 12z"/>
<path d="M3700 2750 c-52 -3 -191 -5 -307 -5 -117 0 -213 -2 -213 -5 0 -3 -68
-5 -151 -5 -149 0 -161 -2 -166 -36 -1 -8 -16 -76 -33 -150 -17 -74 -33 -145
-36 -159 -3 -14 -9 -41 -14 -60 -5 -19 -11 -47 -14 -63 -3 -15 -7 -35 -10 -45
-3 -9 -7 -28 -10 -42 -2 -14 -7 -36 -11 -50 -4 -18 0 -34 14 -52 12 -14 21
-31 21 -37 0 -6 4 -11 10 -11 5 0 16 -12 24 -27 22 -41 19 -12 -5 48 -23 59
-22 70 16 234 9 39 18 81 21 95 2 14 7 32 11 40 3 8 7 22 8 30 1 8 12 56 24
105 12 50 23 97 25 105 2 10 16 15 42 16 42 1 66 -8 93 -34 10 -9 78 -73 151
-142 342 -322 453 -455 490 -590 7 -28 17 -30 75 -17 22 5 51 11 65 13 14 1
40 5 58 8 110 19 181 29 210 30 12 1 22 3 22 6 0 3 15 6 33 7 17 1 46 4 62 6
17 2 55 7 86 11 31 4 67 9 80 12 13 2 53 6 89 8 36 3 76 7 90 10 14 3 45 8 70
10 25 3 46 5 47 5 3 1 -51 61 -122 135 -22 24 -94 101 -160 171 -189 203 -415
425 -433 426 -65 4 -171 3 -252 -1z m410 -250 c30 -35 69 -78 85 -95 17 -18
45 -50 62 -72 18 -21 50 -57 70 -79 52 -56 147 -165 151 -174 1 -3 -3 -7 -10
-7 -21 -1 -175 -15 -318 -29 -30 -3 -80 -7 -110 -10 -109 -9 -145 -13 -145
-14 0 -1 -20 -3 -45 -5 -25 -1 -69 -6 -97 -9 l-53 -7 -22 46 c-12 25 -26 45
-31 45 -4 0 -5 5 -2 10 3 6 2 10 -4 10 -5 0 -13 10 -17 23 -3 12 -119 134
-256 270 -138 137 -248 250 -245 253 5 5 113 8 571 19 126 3 232 7 235 10 5 6
98 -88 181 -185z"/>
<path d="M5725 1411 c-2 -2 -170 -5 -372 -7 -202 -2 -534 -6 -738 -9 -1266
-18 -1177 -17 -1212 -11 -13 3 -23 2 -23 -2 0 -4 -125 -8 -278 -10 -272 -3
-419 -7 -637 -17 -60 -3 -185 -7 -277 -9 -93 -3 -172 -8 -178 -11 -5 -3 -10
-1 -10 5 0 6 -5 8 -12 4 -15 -10 -238 -13 -1053 -18 -357 -3 -659 -7 -670 -9
-11 -3 -25 -6 -31 -6 -6 -1 -32 -19 -57 -41 -47 -42 -78 -103 -92 -185 -8 -46
-13 -725 -5 -725 3 0 5 -15 4 -32 -2 -79 55 -167 136 -209 46 -24 18 -22 452
-33 97 -2 182 -7 187 -11 6 -3 11 -1 11 5 0 6 5 8 11 5 5 -4 50 -9 98 -10 48
-2 116 -7 152 -11 87 -9 380 -9 629 0 113 4 275 9 360 12 85 2 179 6 208 7 30
1 56 -1 58 -5 3 -5 11 -5 17 -1 16 10 78 11 877 17 783 6 935 6 1515 0 598 -5
644 -6 1515 -2 688 3 789 6 820 20 41 18 71 45 120 108 l35 44 -2 366 c-3 360
-8 541 -15 570 -2 8 -10 25 -16 38 -7 12 -10 22 -7 22 4 0 -13 18 -36 41 -36
35 -68 55 -101 64 -5 2 -9 3 -10 5 -16 12 -147 20 -374 24 -110 1 -206 6 -212
10 -7 4 -12 2 -12 -4 0 -6 -5 -8 -10 -5 -6 4 -140 9 -298 12 -158 2 -327 5
-375 6 -49 1 -90 0 -92 -2z m-188 -254 c4 -5 9 -86 10 -180 2 -139 9 -361 12
-375 1 -2 6 0 11 3 14 9 22 -15 24 -74 2 -75 -5 -81 -121 -84 -54 -2 -119 1
-144 7 l-44 11 3 48 c1 27 9 67 16 90 8 25 13 73 11 117 -2 41 -4 123 -6 182
-2 98 -4 109 -24 122 -20 13 -21 20 -14 70 4 30 10 60 14 66 8 14 238 10 252
-3z m-1162 -10 c11 -3 20 -6 20 -7 0 -1 8 -3 17 -5 28 -5 78 -29 78 -37 0 -5
6 -8 13 -8 19 0 86 -89 94 -125 1 -5 5 -21 8 -35 10 -42 7 -223 -4 -252 -6
-16 -8 -28 -5 -28 9 0 -48 -74 -87 -112 -81 -80 -143 -94 -394 -93 -202 1
-215 6 -209 67 7 73 17 103 32 94 4 -2 7 81 6 185 -1 182 -2 190 -23 210 -15
14 -21 29 -18 47 14 82 20 101 36 105 25 5 414 0 436 -6z m-1143 -15 c7 -7 12
-54 14 -119 1 -60 2 -109 3 -110 1 -2 10 6 21 17 29 29 63 40 112 35 24 -2 45
-4 48 -6 3 -1 8 -1 13 0 4 0 7 -4 7 -11 0 -6 3 -9 6 -5 19 19 96 -97 89 -135
-2 -10 0 -18 4 -18 4 0 7 -40 6 -88 -1 -102 -17 -145 -72 -198 -45 -44 -62
-53 -112 -58 -40 -4 -107 22 -123 47 -4 7 -11 1 -18 -14 -7 -14 -17 -26 -23
-27 -52 -6 -187 -7 -207 -2 -23 6 -25 11 -25 64 -1 32 3 60 7 62 5 3 5 10 2
16 -4 6 -1 13 5 17 9 6 15 152 10 231 -1 8 1 45 4 82 6 61 4 69 -14 79 -17 9
-20 18 -17 59 2 27 7 52 11 56 4 4 7 15 7 25 0 16 11 17 115 15 71 -2 120 -7
127 -14z m-2125 -35 c7 -5 10 -31 8 -69 -2 -49 -7 -64 -25 -78 -21 -16 -22
-24 -24 -176 -3 -175 -13 -221 -57 -269 -16 -16 -29 -33 -29 -37 0 -3 -23 -18
-52 -32 -46 -23 -61 -25 -142 -22 -64 2 -103 9 -131 22 -70 33 -75 42 -69 114
3 36 9 69 14 75 6 7 32 9 76 4 53 -5 71 -11 84 -29 11 -14 24 -21 33 -17 13 5
15 30 17 149 1 79 2 154 2 168 1 45 -2 49 -29 52 -26 3 -28 6 -27 48 1 67 7
94 23 101 19 8 315 4 328 -4z m851 1 c11 -15 10 -157 -1 -175 -4 -6 -3 -14 3
-18 6 -4 8 -10 6 -14 -3 -4 -8 -38 -11 -74 -7 -76 2 -84 36 -34 13 17 29 38
36 45 8 8 20 27 28 43 21 40 44 49 124 49 70 0 104 -7 97 -19 -2 -3 -5 -26 -7
-51 -3 -49 -18 -92 -29 -85 -8 5 -26 -12 -64 -59 l-24 -29 35 -53 c20 -31 45
-55 59 -58 22 -6 24 -11 24 -64 0 -83 -3 -85 -116 -88 -112 -2 -116 0 -159 84
-43 82 -48 80 -47 -20 0 -28 -5 -51 -14 -59 -14 -12 -218 -18 -230 -7 -13 14
-1 136 14 148 13 9 8 383 -5 406 -7 12 -11 23 -9 25 2 2 6 22 9 44 9 76 7 75
127 75 74 0 111 -4 118 -12z m2969 -133 c14 -3 23 -13 23 -25 0 -30 17 -24 23
8 l6 28 88 -3 c134 -4 153 -9 153 -41 0 -94 -2 -117 -14 -126 -13 -12 -33 -58
-61 -146 -10 -30 -22 -61 -28 -67 -5 -7 -7 -13 -3 -13 3 0 -5 -29 -18 -64 -14
-35 -22 -67 -19 -70 4 -3 1 -6 -5 -6 -7 0 -12 -4 -12 -10 0 -22 -118 -145
-149 -155 -74 -23 -151 -23 -204 1 l-38 18 2 65 c4 96 7 100 76 95 32 -3 60
-9 61 -15 3 -6 9 -6 17 1 11 9 10 17 -3 43 -9 18 -17 37 -18 42 -11 48 -110
285 -120 285 -18 0 -26 33 -19 76 12 76 15 83 48 86 46 4 187 0 214 -7z m954
-2 c9 -9 19 -140 21 -281 0 -48 2 -53 27 -58 14 -3 32 -7 39 -10 11 -3 30 48
24 69 -1 4 -3 32 -3 62 -1 33 -7 59 -15 66 -8 6 -14 8 -14 4 0 -5 -8 -1 -19 9
-13 12 -17 26 -14 49 3 27 7 53 12 99 2 13 234 -2 248 -15 9 -10 19 -128 24
-281 1 -57 5 -69 20 -73 28 -8 28 -116 -1 -146 -4 -5 -49 -9 -99 -11 -91 -2
-135 8 -137 32 -1 7 -2 16 -3 21 0 6 -24 -5 -51 -23 -42 -28 -60 -33 -106 -33
-52 -1 -59 2 -100 42 -24 24 -45 51 -46 62 -1 10 -2 25 -3 33 0 8 -3 20 -6 25
-4 6 -7 42 -7 80 0 39 -1 82 -1 96 -1 19 -8 28 -22 32 -20 5 -21 11 -17 72 3
36 10 71 16 78 13 16 217 16 233 0z m727 -7 c18 -3 41 -10 51 -15 10 -6 21 -8
23 -5 20 20 46 -98 27 -127 -10 -17 -139 -21 -139 -4 0 20 -43 34 -57 19 -15
-15 -8 -40 10 -41 35 -3 136 -37 164 -56 53 -36 74 -116 46 -170 -13 -26 -34
-48 -79 -86 -50 -42 -243 -45 -327 -5 -36 17 -40 36 -23 111 10 42 12 43 144
31 7 -1 15 -11 18 -24 4 -17 12 -22 31 -20 14 2 30 10 35 19 6 12 2 20 -21 32
-17 8 -38 15 -49 15 -25 0 -102 38 -102 50 0 6 -7 10 -15 10 -8 0 -15 7 -15
15 0 9 -6 18 -14 21 -10 4 -12 22 -10 69 4 90 30 134 93 161 25 11 144 11 209
0z m-3743 -19 c18 -6 20 -15 20 -92 0 -47 -4 -85 -8 -85 -5 0 -5 -6 -1 -12 5
-7 8 -46 9 -88 0 -50 4 -75 12 -75 6 0 14 -2 17 -5 9 -10 13 -101 4 -106 -5
-3 -6 -9 -3 -14 6 -9 -11 -23 -35 -27 -16 -3 -164 -6 -192 -4 -10 0 -20 12
-24 25 l-6 24 -43 -30 c-33 -23 -59 -32 -100 -36 -38 -3 -55 -1 -55 7 0 7 -4
10 -9 7 -13 -8 -59 31 -78 67 -13 24 -17 61 -19 149 -1 91 -5 120 -17 133 -9
8 -14 25 -11 38 6 32 16 80 18 94 1 7 4 15 7 18 7 7 219 8 226 1 3 -3 5 -43 3
-88 -5 -188 -5 -210 2 -228 8 -22 52 -28 64 -8 4 6 8 49 9 95 2 63 -1 83 -11
83 -13 0 -37 34 -29 41 2 2 6 24 10 49 9 66 25 76 131 74 49 0 98 -4 109 -7z
m-1485 -18 c0 -3 11 -4 25 -1 33 6 124 -25 151 -51 39 -39 51 -86 52 -201 1
-96 3 -110 21 -122 16 -12 19 -24 17 -70 -2 -30 -8 -60 -14 -66 -6 -6 -41 -10
-79 -9 -37 0 -78 1 -91 1 -31 0 -64 18 -57 31 11 16 -11 10 -35 -11 -25 -22
-25 -22 -92 -25 -40 -2 -51 2 -81 29 -34 31 -35 35 -32 90 5 89 28 131 89 160
28 14 71 27 95 30 52 7 53 7 41 26 -10 16 -119 20 -169 7 -45 -12 -56 21 -38
116 5 26 34 57 54 58 27 1 97 10 100 12 5 6 43 2 43 -4z"/>
<path d="M4222 997 c-6 -7 -13 -35 -17 -62 -10 -70 -11 -236 -3 -241 4 -3 3
-15 -1 -27 -13 -33 6 -64 42 -70 25 -3 37 2 60 26 l28 30 -2 150 c0 82 -3 156
-6 164 -11 29 -84 51 -101 30z"/>
<path d="M3256 786 c-9 -6 -18 -28 -21 -48 -3 -21 -7 -53 -10 -72 -3 -26 1
-38 20 -56 22 -21 28 -22 49 -11 13 7 28 27 33 45 12 39 8 113 -7 131 -16 19
-47 25 -64 11z"/>
<path d="M4945 900 c3 -5 8 -10 11 -10 2 0 4 5 4 10 0 6 -5 10 -11 10 -5 0 -7
-4 -4 -10z"/>
<path d="M4931 807 c-10 -10 -8 -22 20 -84 20 -45 31 -55 28 -25 -1 9 0 19 1
22 1 3 4 24 6 46 4 38 2 42 -20 46 -14 3 -29 1 -35 -5z"/>
<path d="M1361 597 c-6 -6 -11 -21 -11 -34 0 -18 6 -23 26 -23 14 0 23 4 19 9
-3 6 2 14 10 19 9 4 13 15 10 23 -7 18 -38 22 -54 6z"/>
</g>
</svg>
